{"title":"25th Hour (2002) - DVDRip - XviD","uid":4745676,"size":733956096,"categoryP":"video","categoryS":"movies","magnet":"?xt=urn:btih:547bd18d901acc0cea2fbfd38c9511e30d86c036&amp;dn=25th+Hour+%282002%29+-+DVDRip+-+XviD&amp;tr=udp%3A%2F%2Ftracker.openbittorrent.com%3A80&amp;tr=udp%3A%2F%2Fopen.demonii.com%3A1337&amp;tr=udp%3A%2F%2Ftracker.coppersurfer.tk%3A6969&amp;tr=udp%3A%2F%2Fexodus.desync.com%3A6969","seeders":25,"leechers":2,"uploader":"akhiugo","files":-1,"time":1235864231,"description":"Cornered by the DEA, convicted New York drug dealer Montgomery Brogan (Norton) reevaluates his life in the 24 remaining hours before facing a seven-year jail term.\n\nThe 25th Hour depicts the last day of freedom for a young man before he begins serving a seven-year jail term for drug dealing. Prowling through the city until dawn with his two close male friends and his girlfriend, he is forced to re-examine his life and how he got himself into his predicament, which leads to a shocking, disturbing finale.\n\n\n\nIMDB Rating 7.9/10 (47,578 votes)\n---------------------------------\n\nGeneral\nComplete name                    : 25th Hour (2002).avi\nFormat                           : AVI\nFormat/Info                      : Audio Video Interleave\nFile size                        : 700 MiB\nDuration                         : 2h 14mn\nOverall bit rate                 : 727 Kbps\nWriting application              : VirtualDubMod 1.5.4.1 (build 2178/release)\nWriting library                  : VirtualDubMod build 2178/release\n\nVideo\nFormat                           : MPEG-4 Visual\nFormat profile                   : Streaming Video@L1\nFormat settings, BVOP            : Yes\nFormat settings, QPel            : No\nFormat settings, GMC             : No warppoints\nFormat settings, Matrix          : Custom\nCodec ID                         : XVID\nCodec ID/Hint                    : XviD\nDuration                         : 2h 14mn\nBit rate                         : 592 Kbps\nWidth                            : 608 pixels\nHeight                           : 256 pixels\nDisplay aspect ratio             : 2.35\nFrame rate                       : 25.000 fps\nResolution                       : 24 bits\nColorimetry                      : 4:2:0\nScan type                        : Progressive\nBits/(Pixel*Frame)               : 0.152\nStream size                      : 570 MiB (81%)\nWriting library                  : XviD 1.2.0.dev47 (UTC 2006-11-01)\n\nAudio\nFormat                           : MPEG Audio\nFormat version                   : Version 1\nFormat profile                   : Layer 3\nCodec ID                         : 55\nCodec ID/Hint                    : MP3\nDuration                         : 2h 14mn\nBit rate mode                    : Constant\nBit rate                         : 128 Kbps\nMinimum bit rate                 : 128 Kbps\nChannel(s)                       : 2 channels\nSampling rate                    : 48.0 KHz\nResolution                       : 16 bits\nStream size                      : 123 MiB (18%)\nAlignment                        : Aligned on interleaves\nInterleave, duration             : 80 ms (2.00 video frames)\nInterleave, preload duration     : 504 ms\nWriting library                  : LAME3.97 \nEncoding settings                : CBR\n\n\nScreen thumbnails:\n &lt;a href=&quot;\nhttp://img19.picoodle.com/img/img19/3/2/28/ut3/f_thumbs20090m_6a65b8d.png&quot; rel=&quot;nofollow&quot; target=&quot;_NEW&quot;&gt;\nhttp://img19.picoodle.com/img/img19/3/2/28/ut3/f_thumbs20090m_6a65b8d.png&lt;/a&gt;\n\n\n\nPlease help your fellow pirates by seeding after download!","torrent":{"xt":"urn:btih:547bd18d901acc0cea2fbfd38c9511e30d86c036","amp;dn":"25th+Hour+%282002%29+-+DVDRip+-+XviD","amp;tr":["udp%3A%2F%2Ftracker.openbittorrent.com%3A80","udp%3A%2F%2Fopen.demonii.com%3A1337","udp%3A%2F%2Ftracker.coppersurfer.tk%3A6969","udp%3A%2F%2Fexodus.desync.com%3A6969"],"infoHash":"547bd18d901acc0cea2fbfd38c9511e30d86c036","infoHashBuffer":{"type":"Buffer","data":[84,123,209,141,144,26,204,12,234,47,191,211,140,149,17,227,13,134,192,54]},"announce":[],"urlList":[]}}